<svg width="111" height="94" viewBox="0 0 111 94" fill="none" xmlns="http://www.w3.org/2000/svg">
<path fill-rule="evenodd" clip-rule="evenodd" d="M25.7814 31.9866C28.5549 32.582 31.9297 34.1893 34.849 34.2165C37.2361 29.6437 37.5022 27.9002 40.6037 23.8761C62.2048 -4.15637 106.952 16.8514 100.363 53.3174C97.185 70.916 83.1244 84.366 64.1582 83.0778C46.9269 81.9063 32.3926 65.9189 32.8007 47.0049L33.0559 40.926C30.1184 40.171 26.9403 38.875 23.7988 38.6843C21.9583 53.4847 24.8229 64.5451 31.4559 74.3797C52.1495 105.066 98.8177 98.0416 109.11 59.1044C112.707 45.4988 109.595 31.8931 103.869 22.2571C88.0663 -4.33539 52.1313 -6.87283 33.3547 17.155C30.6395 20.6304 26.2807 27.1374 25.7814 31.9866ZM10.1354 30.8502C7.60248 32.9556 0.73255 36.9719 0 39.3109C1.62181 40.2215 13.492 43.5646 15.748 43.6736C17.8728 40.2177 21.6776 37.6763 23.6311 34.3839C23.5692 31.5273 22.5487 29.3363 21.9072 27.079C21.0763 24.1446 21.3751 22.008 18.9187 21.0935C16.6992 20.2684 7.17972 17.6493 4.73788 17.4702C5.35745 22.0781 9.93133 27.2775 10.1354 30.8502ZM57.2956 40.4434C57.3977 40.5368 57.558 40.5173 57.6163 40.6963C58.44 43.1598 71.7389 41.428 69.7453 48.3943C68.5572 52.5468 58.1922 48.2853 55.4478 47.3007C53.4616 58.9488 73.0983 65.5414 77.745 51.4143C82.9677 35.5281 61.4467 29.4608 57.2956 40.4473V40.4434ZM40.6 35.8978C42.1453 36.9797 47.2695 38.3068 49.5036 38.5559C52.9477 34.7419 53.0789 32.1539 58.4436 29.2662C71.6623 22.1559 89.5205 34.4306 84.8847 52.4962C82.7016 60.9958 74.403 68.7366 63.3091 66.6778C58.2833 65.7477 54.7007 62.8405 52.2662 59.6882C48.1952 54.4187 48.9423 52.4106 47.9109 45.1524L38.7523 42.7473C35.2207 82.1749 85.3001 89.7249 94.3094 54.9325C101.041 28.9393 74.5524 8.50358 53.4689 20.4669C48.3702 23.3585 41.8938 29.9823 40.6 35.8978Z" fill="#F5B333"/>
</svg>
