<svg width="206" height="206" viewBox="0 0 206 206" fill="none" xmlns="http://www.w3.org/2000/svg">
<path d="M68.6925 25.635C45.0992 25.635 25.9665 44.7677 25.9665 68.361V136.723C25.9665 160.316 45.0992 179.449 68.6925 179.449H137.054C160.647 179.449 179.78 160.316 179.78 136.723V68.361C179.78 44.7677 160.647 25.635 137.054 25.635H68.6925ZM154.145 42.7254C158.862 42.7254 162.69 46.5537 162.69 51.2706C162.69 55.9876 158.862 59.8158 154.145 59.8158C149.428 59.8158 145.599 55.9876 145.599 51.2706C145.599 46.5537 149.428 42.7254 154.145 42.7254ZM102.873 59.8158C126.467 59.8158 145.599 78.9485 145.599 102.542C145.599 126.135 126.467 145.268 102.873 145.268C79.28 145.268 60.1473 126.135 60.1473 102.542C60.1473 78.9485 79.28 59.8158 102.873 59.8158ZM102.873 76.9062C96.0744 76.9062 89.5538 79.6071 84.7462 84.4147C79.9386 89.2223 77.2377 95.7428 77.2377 102.542C77.2377 109.341 79.9386 115.861 84.7462 120.669C89.5538 125.477 96.0744 128.177 102.873 128.177C109.672 128.177 116.193 125.477 121 120.669C125.808 115.861 128.509 109.341 128.509 102.542C128.509 95.7428 125.808 89.2223 121 84.4147C116.193 79.6071 109.672 76.9062 102.873 76.9062Z" fill="#F5B333"/>
</svg>
