<svg width="171" height="170" viewBox="0 0 171 170" fill="none" xmlns="http://www.w3.org/2000/svg">
<g clip-path="url(#clip0_4_160)">
<path d="M138.259 0.217285H32.1809C14.6116 0.217285 0.357361 14.4716 0.357361 32.0408V138.119C0.357361 155.688 14.6116 169.943 32.1809 169.943H138.259C155.828 169.943 170.083 155.688 170.083 138.119V32.0408C170.083 14.4716 155.828 0.217285 138.259 0.217285ZM52.8356 144.29H26.469L26.316 65.3433H52.6826L52.8356 144.29ZM38.9893 55.0159H38.8363C30.2174 55.0159 24.6585 49.0745 24.6585 41.6797C24.6585 34.1063 30.3959 28.3689 39.1678 28.3689C47.9396 28.3689 53.32 34.1063 53.4985 41.6797C53.4985 49.0745 47.9141 55.0159 38.9893 55.0159ZM144.252 144.29H117.656V101.4C117.656 91.0214 114.902 83.958 105.62 83.958C98.5309 83.958 94.7059 88.7264 92.8699 93.3419C92.1814 94.9993 92.003 97.2688 92.003 99.5893V144.29H65.2794L65.1264 65.3433H91.85L92.003 76.4866C95.4199 71.2082 101.106 63.7368 114.723 63.7368C131.604 63.7368 144.226 74.7526 144.226 98.4418V144.29H144.252Z" fill="#F5B333"/>
</g>
<defs>
<clipPath id="clip0_4_160">
<rect width="169.725" height="169.725" fill="white" transform="translate(0.357361 0.217285)"/>
</clipPath>
</defs>
</svg>
