<svg width="74" height="94" viewBox="0 0 74 94" fill="none" xmlns="http://www.w3.org/2000/svg">
<path fill-rule="evenodd" clip-rule="evenodd" d="M73.9852 19.8312C73.1172 21.1839 67.7529 22.3279 67.1508 22.1358C66.1968 21.8269 66.8927 22.1108 66.2593 21.4428C64.062 19.1632 67.4792 21.9104 65.5321 20.5827L44.7239 27.0291C44.6926 31.2876 44.8568 35.2039 44.4502 39.3539L41.3849 39.7965L41.4396 43.0698C43.4727 43.0698 46.3269 42.7107 47.8909 43.4789C48.407 44.9987 48.188 47.4286 48.2037 49.3241C48.2506 54.8352 47.1011 52.6892 47.1089 54.1755L56.8522 85.3384L52.958 85.3468L42.6204 56.7724C41.8306 54.6097 42.1669 53.6745 40.1181 53.5826L39.2267 92.887L35.6843 93.0206C35.1448 86.5826 35.6296 56.4885 34.4332 53.616C33.1429 53.7831 33.6434 52.7894 32.2828 56.7474L21.9373 85.3635L18.1057 85.3468L27.7864 54.1087C27.7708 52.5806 26.637 55.0105 26.6917 49.3324C26.7073 47.3785 26.4649 45.2742 27.0201 43.4288C29.0063 42.7191 31.407 43.1032 33.5105 43.0614L33.5808 39.7547L30.5155 39.4625C29.7648 36.7821 30.1949 32.5402 30.234 29.4506C27.7473 29.7345 25.55 30.962 23.2901 31.438C19.5054 32.2312 23.1885 29.3588 16.5261 31.4296C13.8283 32.2646 8.52655 33.1581 6.80622 35.2039C6.03989 36.1057 5.29702 36.9324 3.42812 36.423C0.362793 35.588 -2.41319 24.19 3.89729 25.668C6.76712 26.3443 6.01643 25.9936 10.8099 24.5073C12.9603 23.8393 15.9083 23.1045 17.746 22.3112L18.2464 21.1255C19.2395 19.1131 22.9226 18.6121 26.3085 17.585C29.7257 16.5496 32.9787 15.5642 36.3177 14.4453C37.7331 13.2345 34.4097 12.7669 41.4162 10.6376C45.7796 9.30995 59.0809 5.46052 61.5519 4.20799C60.7464 1.26872 63.7336 1.27707 66.3844 0.433705C69.8798 -0.68522 69.3794 1.26037 70.349 4.90106C71.0059 7.37271 74.3527 18.5453 73.9695 19.8312H73.9852Z" fill="#F5B333"/>
</svg>
