<!DOCTYPE svg PUBLIC "-//W3C//DTD SVG 1.1//EN" "http://www.w3.org/Graphics/SVG/1.1/DTD/svg11.dtd">
<!-- Uploaded to: SVG Repo, www.svgrepo.com, Transformed by: SVG Repo Mixer Tools -->
<svg width="800px" height="800px" viewBox="-2.4 -2.4 28.80 28.80" fill="none" xmlns="http://www.w3.org/2000/svg" transform="rotate(0)">
<g id="SVGRepo_bgCarrier" stroke-width="0" transform="translate(5.279999999999999,5.279999999999999), scale(0.56)">
<path transform="translate(-2.4, -2.4), scale(0.8999999999999999)" d="M16,27.633143986264866C18.332466262114302,27.49629924612733,19.877443274116718,25.271941546400775,21.55446780703326,23.645069067439742C22.986488362249368,22.2558736294124,24.158204265346107,20.73541205539069,24.983023453786004,18.918761251857223C25.90944184621518,16.878339859384642,26.53169522262054,14.800106632843196,26.587492049757447,12.559915299324501C26.668688898714898,9.299936431759138,28.100783394536172,4.886752163759198,25.37718823154873,3.093407653241277C22.607952881757885,1.2700114744081898,19.31089812000857,5.411430307817407,16,5.588607299658987C12.994290471902591,5.749452651353617,10.157041056244463,3.040666772697583,7.324687021359878,4.059456061770808C4.2463865715620495,5.166711541904,1.373841759631032,7.8394508327302805,0.7923771885767934,11.058743815687752C0.21929204607995245,14.231643885131827,2.660973594198542,17.08554555915951,4.492675793993415,19.73895628546923C5.876672058840349,21.74381850309865,7.942022676088163,22.947711679711315,9.950920289068314,24.32584394961536C11.893466686636838,25.658458344185547,13.648338532405488,27.771114900421935,16,27.633143986264866" fill="#f5b333" strokewidth="0"/>
</g>
<g id="SVGRepo_tracerCarrier" stroke-linecap="round" stroke-linejoin="round" stroke="#CCCCCC" stroke-width="1.44"> <path d="M12 22C17.5 22 22 17.5 22 12C22 6.5 17.5 2 12 2C6.5 2 2 6.5 2 12C2 17.5 6.5 22 12 22Z" stroke="#552200" stroke-width="1.5" stroke-linecap="round" stroke-linejoin="round"/> <path d="M7.75 12L10.58 14.83L16.25 9.17004" stroke="#552200" stroke-width="1.5" stroke-linecap="round" stroke-linejoin="round"/> </g>
<g id="SVGRepo_iconCarrier"> <path d="M12 22C17.5 22 22 17.5 22 12C22 6.5 17.5 2 12 2C6.5 2 2 6.5 2 12C2 17.5 6.5 22 12 22Z" stroke="#552200" stroke-width="1.5" stroke-linecap="round" stroke-linejoin="round"/> <path d="M7.75 12L10.58 14.83L16.25 9.17004" stroke="#552200" stroke-width="1.5" stroke-linecap="round" stroke-linejoin="round"/> </g>
</svg>