<svg width="213" height="213" viewBox="0 0 213 213" fill="none" xmlns="http://www.w3.org/2000/svg">
<path d="M173.991 16.9722H38.2108C26.5125 16.9722 16.9951 26.4895 16.9951 38.1878V173.968C16.9951 185.666 26.5125 195.184 38.2108 195.184H173.991C185.689 195.184 195.207 185.666 195.207 173.968V38.1878C195.207 26.4895 185.689 16.9722 173.991 16.9722ZM157.044 94.7191C156.081 94.8082 155.105 94.8676 154.116 94.8676C142.987 94.8676 133.206 89.1436 127.516 80.4919C127.516 103.188 127.516 129.012 127.516 129.445C127.516 149.426 111.316 165.626 91.3348 165.626C71.3539 165.626 55.1536 149.426 55.1536 129.445C55.1536 109.464 71.3539 93.2637 91.3348 93.2637C92.0901 93.2637 92.8284 93.3316 93.571 93.3783V111.208C92.8284 111.119 92.0986 110.983 91.3348 110.983C81.1343 110.983 72.8687 119.249 72.8687 129.449C72.8687 139.65 81.1343 147.915 91.3348 147.915C101.535 147.915 110.544 139.879 110.544 129.678C110.544 129.275 110.722 46.5383 110.722 46.5383H127.762C129.366 61.7754 141.667 73.8005 157.044 74.9037V94.7191Z" fill="#F5B333"/>
</svg>
