<svg width="171" height="170" viewBox="0 0 171 170" fill="none" xmlns="http://www.w3.org/2000/svg">
<path d="M135.573 35.0667C122.236 21.7223 104.5 14.3677 85.6042 14.3606C46.6672 14.3606 14.9787 46.0349 14.9645 84.972C14.9575 97.4183 18.2105 109.568 24.3912 120.274L14.809 155.796L51.8154 147.048C62.1331 152.677 73.7449 155.64 85.5689 155.647H85.5972C124.527 155.647 156.216 123.966 156.237 85.0356C156.251 66.1611 148.91 48.4181 135.573 35.0667ZM120.164 110.211C118.693 114.334 111.487 118.308 108.248 118.598C105.009 118.895 101.975 120.062 87.0681 114.185C69.1271 107.114 57.7981 88.72 56.9212 87.5461C56.0372 86.3651 49.7151 77.978 49.7151 69.2939C49.7151 60.6098 54.2764 56.3385 55.8958 54.5776C57.5152 52.8097 59.4246 52.3712 60.6056 52.3712C61.7795 52.3712 62.9605 52.3712 63.9859 52.4137C65.2447 52.4632 66.6378 52.5268 67.9602 55.4616C69.5301 58.955 72.9599 67.6816 73.3984 68.5655C73.8368 69.4495 74.1338 70.482 73.5469 71.6559C72.9599 72.8298 72.6629 73.5653 71.786 74.5977C70.9021 75.6302 69.9332 76.896 69.1412 77.6881C68.2572 78.565 67.3379 79.5267 68.3633 81.2876C69.3958 83.0555 72.9317 88.8332 78.1789 93.5076C84.9253 99.5186 90.604 101.378 92.3719 102.269C94.1398 103.153 95.1652 103.005 96.1977 101.824C97.2302 100.65 100.61 96.6757 101.784 94.9078C102.958 93.1398 104.139 93.4369 105.759 94.0238C107.378 94.6108 116.055 98.8821 117.816 99.7661C119.584 100.65 120.758 101.088 121.196 101.824C121.635 102.552 121.635 106.088 120.164 110.211Z" fill="#F5B333"/>
</svg>
